<svg width="70" height="80" viewBox="0 0 70 80" fill="none" xmlns="http://www.w3.org/2000/svg">
<path d="M26.4728 17.4767C28.5924 16.0878 31.1528 15.4293 34.1507 15.4293C41.6089 15.4293 47.0208 18.354 50.3115 24.2775L67.8618 19.159C65.4491 13.3818 61.2076 8.775 55.2105 5.26531C49.2148 1.75444 42.1939 0 34.2241 0C25.8142 0 18.648 2.19405 12.7247 6.65421C6.80081 11.1145 3.8028 16.453 3.8028 22.7421L23.3283 22.3033C23.3283 20.4748 24.352 18.866 26.4728 17.4767Z" fill="white"/>
<path d="M46.7286 61.6453C44.3879 63.1807 41.3902 63.9126 37.6605 63.9126C32.7606 63.9126 28.5924 62.7423 25.0824 60.4026C21.5726 58.062 19.1599 55.0643 17.8431 51.3345L0 56.5265C1.97509 62.8885 6.36207 68.3728 13.1631 72.9795C19.9639 77.5874 27.8617 79.9269 36.8565 79.9269L37.0755 80.0001C46.6555 80.0001 54.4801 77.6595 60.6223 72.9795C66.7648 68.2995 69.8358 62.3769 69.8358 55.2106L50.2386 56.0878C50.2386 58.2818 49.0682 60.1095 46.7286 61.6453Z" fill="#FFCD47"/>
<path d="M64.2786 41.3158C60.5491 38.2446 55.2837 35.6853 48.4829 33.7111L29.6173 28.2993C25.449 27.0569 23.3283 25.0826 23.3283 22.3036L3.8028 22.7421C3.8028 32.6141 10.0186 39.3416 22.5234 42.9249L41.8287 48.6287C47.4592 50.3107 50.2383 52.7966 50.2383 56.0879L69.8361 55.2105C69.8361 48.995 68.0084 44.3871 64.2786 41.3158Z" fill="#E52B29"/>
</svg>
